Coordinates
version=1
nRows=7
nColumns=40
inDegrees=yes

Units are S.I. units (second, meters, Newtons, ...)
Angles are in degrees.

endheader
time	pelvis_tilt	pelvis_list	pelvis_rotation	pelvis_tx	pelvis_ty	pelvis_tz	hip_flexion_r	hip_adduction_r	hip_rotation_r	knee_angle_r	knee_angle_r_beta	ankle_angle_r	subtalar_angle_r	mtp_angle_r	hip_flexion_l	hip_adduction_l	hip_rotation_l	knee_angle_l	knee_angle_l_beta	ankle_angle_l	subtalar_angle_l	mtp_angle_l	lumbar_extension	lumbar_bending	lumbar_rotation	arm_flex_r	arm_add_r	arm_rot_r	elbow_flex_r	pro_sup_r	wrist_flex_r	wrist_dev_r	arm_flex_l	arm_add_l	arm_rot_l	elbow_flex_l	pro_sup_l	wrist_flex_l	wrist_dev_l
     23.23000000	     -3.09986833	     -3.44062905	     -3.64009794	      0.92258763	      0.91647848	      0.41008044	     12.50623254	     -9.98134432	    -10.83270377	     58.27546560	     58.27546560	      9.08276990	    -18.95006523	     11.62952090	     17.57465207	     -0.91862790	     -1.73646142	     32.25589615	     32.25589615	     20.07827199	    -16.94277221	      7.70276191	     -9.34019359	      3.52151376	      3.15863309	     23.05561102	    -11.47467788	      0.97982759	     37.91401074	     45.80193148	      0.00000000	      0.00000000	     15.93944989	    -15.98598172	      4.06687475	     44.82581239	     46.10052286	      0.00000000	      0.00000000
     23.24814286	     -2.74113521	     -3.46207815	     -4.04640844	      0.92261193	      0.91514691	      0.40908202	     14.17950168	     -9.97580516	    -10.14171965	     59.51004717	     59.51004717	      9.67731000	    -19.15361928	     11.89879644	     17.04887027	     -0.78848241	     -1.76575550	     32.86670667	     32.86670667	     20.73982238	    -17.44399743	      7.66210766	     -9.65089486	      3.81544536	      2.76387792	     20.17202705	    -11.88883344	      0.93679237	     36.49483295	     45.84009997	      0.00000000	      0.00000000	     17.01318969	    -15.97222382	      3.81928945	     45.57672758	     46.15077131	      0.00000000	      0.00000000
     23.26628571	     -2.34702162	     -3.55411170	     -4.48549750	      0.92258089	      0.91400172	      0.40824530	     15.82815396	     -9.78749536	     -9.39605843	     60.56286764	     60.56286764	     10.60265713	    -19.26097387	     13.38968846	     16.43062190	     -0.73474636	     -1.81615798	     33.41666533	     33.41666533	     21.58832368	    -17.83623661	      8.06613941	    -10.04186592	      4.17542026	      2.72613308	     17.17187673	    -12.48353672	      0.56606713	     34.75142041	     45.91050527	      0.00000000	      0.00000000	     18.31479291	    -15.74021533	      3.46026358	     46.44673115	     46.22245036	      0.00000000	      0.00000000
     23.28442857	     -2.05040953	     -3.58990964	     -4.91366744	      0.92240294	      0.91293037	      0.40756777	     17.54570532	     -9.58994583	     -8.68650615	     61.31432199	     61.31432199	     11.38898584	    -19.33453082	     14.53017989	     15.88881003	     -0.65152549	     -1.95155202	     33.88217922	     33.88217922	     22.33325839	    -18.12729051	      8.40118631	    -10.32737778	      4.49247077	      2.44678669	     14.31512212	    -12.92988159	      0.09824910	     33.13373843	     45.98407693	      0.00000000	      0.00000000	     19.56588171	    -15.71615448	      3.11757277	     47.19035876	     46.28675967	      0.00000000	      0.00000000
     23.30257143	     -1.78964495	     -3.67333540	     -5.34671459	      0.92206997	      0.91219711	      0.40720235	     19.19191614	     -9.26237147	     -8.05975348	     61.62929923	     61.62929923	     11.99736170	    -19.37935097	     15.23442139	     15.28011828	     -0.64652532	     -2.11416917	     34.13176605	     34.13176605	     22.99032144	    -18.32991270	      8.61544158	    -10.63395016	      4.81410191	      2.14758085	     11.52737650	    -13.36587633	     -0.35763980	     31.60281656	     46.05536554	      0.00000000	      0.00000000	     20.80002784	    -15.77648521	      2.79202198	     48.00062445	     46.34444959	      0.00000000	      0.00000000
     23.32071429	     -1.53768967	     -3.80616923	     -5.74120885	      0.92160227	      0.91209049	      0.40709746	     20.63455028	     -8.78152696	     -7.51107390	     61.32669917	     61.32669917	     12.37385207	    -19.40508307	     15.20926635	     14.55807925	     -0.73639217	     -2.34460263	     34.10931251	     34.10931251	     23.36977056	    -18.41119151	      8.59911583	    -10.97121346	      5.24489961	      1.10562510	      9.19396536	    -13.64312403	     -0.50547330	     30.64986616	     46.08584467	      0.00000000	      0.00000000	     21.72025418	    -16.45748191	      2.52338657	     48.38125591	     46.38238668	      0.00000000	      0.00000000
     23.33885714	     -1.51624731	     -3.90850391	     -6.23761226	      0.92085265	      0.91228851	      0.40745833	     22.31635143	     -8.14910292	     -6.84255559	     60.66968470	     60.66968470	     13.24908460	    -19.36977035	     17.32174740	     14.03767449	     -0.83249522	     -2.61587928	     33.99215072	     33.99215072	     24.11705908	    -18.39570521	      9.86502316	    -11.17728849	      5.56640537	      1.98826032	      6.62281227	    -13.12686846	     -9.35824569	     27.53174324	     46.79815478	      0.00000000	      0.00000000	     23.49965610	    -15.77809137	      2.18883486	     49.72105115	     46.54333294	      0.00000000	      0.00000000
